<svg width="15" height="5" viewBox="0 0 15 5" fill="none" xmlns="http://www.w3.org/2000/svg">
<path d="M1.66667 0.833496C0.75 0.833496 0 1.5835 0 2.50016C0 3.41683 0.75 4.16683 1.66667 4.16683C2.58333 4.16683 3.33333 3.41683 3.33333 2.50016C3.33333 1.5835 2.58333 0.833496 1.66667 0.833496ZM13.3333 0.833496C12.4167 0.833496 11.6667 1.5835 11.6667 2.50016C11.6667 3.41683 12.4167 4.16683 13.3333 4.16683C14.25 4.16683 15 3.41683 15 2.50016C15 1.5835 14.25 0.833496 13.3333 0.833496ZM7.5 0.833496C6.58333 0.833496 5.83333 1.5835 5.83333 2.50016C5.83333 3.41683 6.58333 4.16683 7.5 4.16683C8.41667 4.16683 9.16667 3.41683 9.16667 2.50016C9.16667 1.5835 8.41667 0.833496 7.5 0.833496Z" fill="#475467"/>
</svg>
