<svg width="24" height="25" viewBox="0 0 24 25" fill="none" xmlns="http://www.w3.org/2000/svg">
<path opacity="0.99" d="M10.3125 16.5938C10.1811 16.594 10.051 16.5682 9.92972 16.5179C9.80839 16.4676 9.69819 16.3938 9.60546 16.3008L6.79296 13.4884C6.60739 13.3004 6.5037 13.0468 6.50452 12.7827C6.50535 12.5186 6.61062 12.2655 6.79736 12.0788C6.9841 11.892 7.23714 11.7867 7.50124 11.7859C7.76534 11.7851 8.01904 11.8887 8.20696 12.0743L10.3124 14.1798L15.793 8.6993C15.9809 8.51374 16.2346 8.41006 16.4987 8.41089C16.7628 8.41173 17.0158 8.51702 17.2026 8.70376C17.3893 8.89051 17.4946 9.14356 17.4954 9.40765C17.4962 9.67175 17.3925 9.92545 17.207 10.1134L11.0195 16.3009C10.9267 16.3939 10.8165 16.4676 10.6952 16.5179C10.5739 16.5682 10.4438 16.594 10.3125 16.5938Z" fill="white"/>
<path d="M12 4.5C10.4178 4.5 8.87103 4.96919 7.55544 5.84824C6.23985 6.72729 5.21447 7.97672 4.60897 9.43853C4.00347 10.9003 3.84504 12.5089 4.15372 14.0607C4.4624 15.6126 5.22433 17.038 6.34315 18.1569C7.46197 19.2757 8.88743 20.0376 10.4393 20.3463C11.9911 20.655 13.5997 20.4965 15.0615 19.891C16.5233 19.2855 17.7727 18.2602 18.6518 16.9446C19.5308 15.629 20 14.0822 20 12.5C19.9976 10.379 19.1539 8.34559 17.6542 6.84583C16.1544 5.34606 14.121 4.50243 12 4.5ZM16.1656 10.5906L11.2156 15.5406C11.1413 15.6149 11.0532 15.6739 10.9561 15.7141C10.8591 15.7543 10.755 15.775 10.65 15.775C10.5449 15.775 10.4409 15.7543 10.3438 15.7141C10.2468 15.6739 10.1586 15.6149 10.0844 15.5406L7.8344 13.2906C7.68595 13.1403 7.60299 12.9373 7.60365 12.7261C7.60431 12.5148 7.68853 12.3123 7.83793 12.1629C7.98732 12.0135 8.18975 11.9293 8.40103 11.9287C8.61231 11.928 8.81527 12.0109 8.9656 12.1594L10.65 13.8438L15.0344 9.45937C15.1847 9.31093 15.3877 9.22798 15.599 9.22865C15.8103 9.22932 16.0127 9.31355 16.1621 9.46295C16.3115 9.61235 16.3957 9.81478 16.3963 10.0261C16.397 10.2373 16.3141 10.4403 16.1656 10.5906Z" fill="#0D0D0D"/>
</svg>
