<svg width="25" height="24" viewBox="0 0 25 24" fill="none" xmlns="http://www.w3.org/2000/svg">
<path d="M20.5 8.00001L14.5 2.74001C13.95 2.24805 13.2379 1.97607 12.5 1.97607C11.762 1.97607 11.05 2.24805 10.5 2.74001L4.49997 8.00001C4.18234 8.28408 3.92887 8.63256 3.75644 9.02225C3.58402 9.41194 3.49659 9.83389 3.49997 10.26V19C3.49997 19.7957 3.81604 20.5587 4.37865 21.1213C4.94126 21.6839 5.70432 22 6.49997 22H18.5C19.2956 22 20.0587 21.6839 20.6213 21.1213C21.1839 20.5587 21.5 19.7957 21.5 19V10.25C21.5019 9.82557 21.4138 9.40555 21.2414 9.01769C21.0691 8.62983 20.8163 8.28296 20.5 8.00001ZM14.5 20H10.5V15C10.5 14.7348 10.6053 14.4804 10.7929 14.2929C10.9804 14.1054 11.2348 14 11.5 14H13.5C13.7652 14 14.0195 14.1054 14.2071 14.2929C14.3946 14.4804 14.5 14.7348 14.5 15V20ZM19.5 19C19.5 19.2652 19.3946 19.5196 19.2071 19.7071C19.0195 19.8946 18.7652 20 18.5 20H16.5V15C16.5 14.2044 16.1839 13.4413 15.6213 12.8787C15.0587 12.3161 14.2956 12 13.5 12H11.5C10.7043 12 9.94126 12.3161 9.37865 12.8787C8.81604 13.4413 8.49997 14.2044 8.49997 15V20H6.49997C6.23476 20 5.9804 19.8946 5.79287 19.7071C5.60533 19.5196 5.49997 19.2652 5.49997 19V10.25C5.50015 10.108 5.53057 9.9677 5.58919 9.83839C5.64781 9.70907 5.7333 9.59372 5.83997 9.50001L11.84 4.25001C12.0225 4.08969 12.2571 4.00127 12.5 4.00127C12.7429 4.00127 12.9775 4.08969 13.16 4.25001L19.16 9.50001C19.2666 9.59372 19.3521 9.70907 19.4108 9.83839C19.4694 9.9677 19.4998 10.108 19.5 10.25V19Z" fill="#000"/>
</svg>
