<svg width="24" height="25" viewBox="0 0 24 25" fill="none" xmlns="http://www.w3.org/2000/svg">
<path d="M8 21.5H4C3.73478 21.5 3.48043 21.3946 3.29289 21.2071C3.10536 21.0196 3 20.7652 3 20.5V16.5C3 16.2348 2.89464 15.9804 2.70711 15.7929C2.51957 15.6054 2.26522 15.5 2 15.5C1.73478 15.5 1.48043 15.6054 1.29289 15.7929C1.10536 15.9804 1 16.2348 1 16.5V20.5C1 21.2956 1.31607 22.0587 1.87868 22.6213C2.44129 23.1839 3.20435 23.5 4 23.5H8C8.26522 23.5 8.51957 23.3946 8.70711 23.2071C8.89464 23.0196 9 22.7652 9 22.5C9 22.2348 8.89464 21.9804 8.70711 21.7929C8.51957 21.6054 8.26522 21.5 8 21.5ZM22 15.5C21.7348 15.5 21.4804 15.6054 21.2929 15.7929C21.1054 15.9804 21 16.2348 21 16.5V20.5C21 20.7652 20.8946 21.0196 20.7071 21.2071C20.5196 21.3946 20.2652 21.5 20 21.5H16C15.7348 21.5 15.4804 21.6054 15.2929 21.7929C15.1054 21.9804 15 22.2348 15 22.5C15 22.7652 15.1054 23.0196 15.2929 23.2071C15.4804 23.3946 15.7348 23.5 16 23.5H20C20.7956 23.5 21.5587 23.1839 22.1213 22.6213C22.6839 22.0587 23 21.2956 23 20.5V16.5C23 16.2348 22.8946 15.9804 22.7071 15.7929C22.5196 15.6054 22.2652 15.5 22 15.5ZM20 1.5H16C15.7348 1.5 15.4804 1.60536 15.2929 1.79289C15.1054 1.98043 15 2.23478 15 2.5C15 2.76522 15.1054 3.01957 15.2929 3.20711C15.4804 3.39464 15.7348 3.5 16 3.5H20C20.2652 3.5 20.5196 3.60536 20.7071 3.79289C20.8946 3.98043 21 4.23478 21 4.5V8.5C21 8.76522 21.1054 9.01957 21.2929 9.20711C21.4804 9.39464 21.7348 9.5 22 9.5C22.2652 9.5 22.5196 9.39464 22.7071 9.20711C22.8946 9.01957 23 8.76522 23 8.5V4.5C23 3.70435 22.6839 2.94129 22.1213 2.37868C21.5587 1.81607 20.7956 1.5 20 1.5ZM2 9.5C2.26522 9.5 2.51957 9.39464 2.70711 9.20711C2.89464 9.01957 3 8.76522 3 8.5V4.5C3 4.23478 3.10536 3.98043 3.29289 3.79289C3.48043 3.60536 3.73478 3.5 4 3.5H8C8.26522 3.5 8.51957 3.39464 8.70711 3.20711C8.89464 3.01957 9 2.76522 9 2.5C9 2.23478 8.89464 1.98043 8.70711 1.79289C8.51957 1.60536 8.26522 1.5 8 1.5H4C3.20435 1.5 2.44129 1.81607 1.87868 2.37868C1.31607 2.94129 1 3.70435 1 4.5V8.5C1 8.76522 1.10536 9.01957 1.29289 9.20711C1.48043 9.39464 1.73478 9.5 2 9.5ZM10 5.5H6C5.73478 5.5 5.48043 5.60536 5.29289 5.79289C5.10536 5.98043 5 6.23478 5 6.5V10.5C5 10.7652 5.10536 11.0196 5.29289 11.2071C5.48043 11.3946 5.73478 11.5 6 11.5H10C10.2652 11.5 10.5196 11.3946 10.7071 11.2071C10.8946 11.0196 11 10.7652 11 10.5V6.5C11 6.23478 10.8946 5.98043 10.7071 5.79289C10.5196 5.60536 10.2652 5.5 10 5.5ZM9 9.5H7V7.5H9V9.5ZM14 11.5H18C18.2652 11.5 18.5196 11.3946 18.7071 11.2071C18.8946 11.0196 19 10.7652 19 10.5V6.5C19 6.23478 18.8946 5.98043 18.7071 5.79289C18.5196 5.60536 18.2652 5.5 18 5.5H14C13.7348 5.5 13.4804 5.60536 13.2929 5.79289C13.1054 5.98043 13 6.23478 13 6.5V10.5C13 10.7652 13.1054 11.0196 13.2929 11.2071C13.4804 11.3946 13.7348 11.5 14 11.5ZM15 7.5H17V9.5H15V7.5ZM10 13.5H6C5.73478 13.5 5.48043 13.6054 5.29289 13.7929C5.10536 13.9804 5 14.2348 5 14.5V18.5C5 18.7652 5.10536 19.0196 5.29289 19.2071C5.48043 19.3946 5.73478 19.5 6 19.5H10C10.2652 19.5 10.5196 19.3946 10.7071 19.2071C10.8946 19.0196 11 18.7652 11 18.5V14.5C11 14.2348 10.8946 13.9804 10.7071 13.7929C10.5196 13.6054 10.2652 13.5 10 13.5ZM9 17.5H7V15.5H9V17.5ZM14 16.5C14.2652 16.5 14.5196 16.3946 14.7071 16.2071C14.8946 16.0196 15 15.7652 15 15.5C15.2652 15.5 15.5196 15.3946 15.7071 15.2071C15.8946 15.0196 16 14.7652 16 14.5C16 14.2348 15.8946 13.9804 15.7071 13.7929C15.5196 13.6054 15.2652 13.5 15 13.5H14C13.7348 13.5 13.4804 13.6054 13.2929 13.7929C13.1054 13.9804 13 14.2348 13 14.5V15.5C13 15.7652 13.1054 16.0196 13.2929 16.2071C13.4804 16.3946 13.7348 16.5 14 16.5ZM18 13.5C17.7348 13.5 17.4804 13.6054 17.2929 13.7929C17.1054 13.9804 17 14.2348 17 14.5V17.5C16.7348 17.5 16.4804 17.6054 16.2929 17.7929C16.1054 17.9804 16 18.2348 16 18.5C16 18.7652 16.1054 19.0196 16.2929 19.2071C16.4804 19.3946 16.7348 19.5 17 19.5H18C18.2652 19.5 18.5196 19.3946 18.7071 19.2071C18.8946 19.0196 19 18.7652 19 18.5V14.5C19 14.2348 18.8946 13.9804 18.7071 13.7929C18.5196 13.6054 18.2652 13.5 18 13.5ZM14 17.5C13.8022 17.5 13.6089 17.5586 13.4444 17.6685C13.28 17.7784 13.1518 17.9346 13.0761 18.1173C13.0004 18.3 12.9806 18.5011 13.0192 18.6951C13.0578 18.8891 13.153 19.0673 13.2929 19.2071C13.4327 19.347 13.6109 19.4422 13.8049 19.4808C13.9989 19.5194 14.2 19.4996 14.3827 19.4239C14.5654 19.3482 14.7216 19.22 14.8315 19.0556C14.9414 18.8911 15 18.6978 15 18.5C15 18.2348 14.8946 17.9804 14.7071 17.7929C14.5196 17.6054 14.2652 17.5 14 17.5Z" fill="black"/>
</svg>
