<svg width="25" height="24" viewBox="0 0 25 24" fill="none" xmlns="http://www.w3.org/2000/svg">
<path fill-rule="evenodd" clip-rule="evenodd" d="M12.5 3C10.8431 3 9.5 4.34315 9.5 6C9.5 7.65685 10.8431 9 12.5 9C14.1569 9 15.5 7.65685 15.5 6C15.5 4.34315 14.1569 3 12.5 3ZM7.5 6C7.5 3.23858 9.73858 1 12.5 1C15.2614 1 17.5 3.23858 17.5 6C17.5 8.76142 15.2614 11 12.5 11C9.73858 11 7.5 8.76142 7.5 6Z" fill="black"/>
<path fill-rule="evenodd" clip-rule="evenodd" d="M2.5 22C2.5 16.4772 6.97717 12 12.5 12C18.0228 12 22.5 16.4772 22.5 22C22.5 22.5523 22.0523 23 21.5 23C20.9477 23 20.5 22.5523 20.5 22C20.5 17.5817 16.9183 14 12.5 14C8.08173 14 4.5 17.5817 4.5 22C4.5 22.5523 4.05228 23 3.5 23C2.94772 23 2.5 22.5523 2.5 22Z" fill="black"/>
</svg>
