<svg width="20" height="21" viewBox="0 0 20 21" fill="none" xmlns="http://www.w3.org/2000/svg">
<path d="M10.4083 9.06003V8.68503H11.5308V13.9534H10.8892C10.7622 13.9536 10.6402 13.9035 10.5501 13.814C10.46 13.7245 10.409 13.6029 10.4083 13.4759C9.93987 13.819 9.37403 14.0044 8.79333 14.0034C8.06781 14.0034 7.37198 13.7153 6.85881 13.2024C6.34563 12.6895 6.05711 11.9939 6.05667 11.2684C6.05711 10.5428 6.34563 9.84719 6.85881 9.33433C7.37198 8.82146 8.06781 8.53337 8.79333 8.53337C9.37375 8.53254 9.9401 8.71705 10.4083 9.06003ZM5.76583 6.9917V7.16253C5.76583 7.48087 5.72333 7.74087 5.51583 8.04587L5.49083 8.0742C5.42177 8.15178 5.35453 8.23097 5.28917 8.3117L1.68667 12.8334H5.76583V13.4734C5.76583 13.5365 5.75339 13.599 5.72922 13.6572C5.70504 13.7155 5.66961 13.7685 5.62495 13.8131C5.58029 13.8577 5.52728 13.893 5.46894 13.9171C5.41061 13.9411 5.3481 13.9535 5.285 13.9534H0V13.6517C0 13.2825 0.0916667 13.1175 0.208333 12.9459L4.04833 8.1917H0.16V6.9917H5.76583ZM12.8917 13.9534C12.7856 13.9534 12.6838 13.9112 12.6088 13.8362C12.5338 13.7612 12.4917 13.6595 12.4917 13.5534V6.9917H13.6925V13.9534H12.8917ZM17.2442 8.50003C17.606 8.49992 17.9642 8.57108 18.2985 8.70943C18.6328 8.84778 18.9366 9.05062 19.1925 9.30636C19.4484 9.56211 19.6514 9.86576 19.79 10.2C19.9285 10.5342 19.9999 10.8924 20 11.2542C20.0001 11.616 19.929 11.9743 19.7906 12.3086C19.6523 12.6428 19.4494 12.9466 19.1937 13.2025C18.9379 13.4584 18.6343 13.6614 18.3001 13.8C17.9659 13.9386 17.6076 14.0099 17.2458 14.01C16.5152 14.0103 15.8143 13.7202 15.2975 13.2037C14.7807 12.6872 14.4902 11.9865 14.49 11.2559C14.4898 10.5252 14.7798 9.82436 15.2963 9.30754C15.8128 8.79072 16.5135 8.50025 17.2442 8.50003ZM8.79417 12.8775C9.00862 12.8824 9.22189 12.8444 9.42144 12.7657C9.621 12.687 9.80281 12.5692 9.95621 12.4193C10.1096 12.2693 10.2315 12.0902 10.3147 11.8925C10.3979 11.6948 10.4408 11.4825 10.4408 11.2679C10.4408 11.0534 10.3979 10.8411 10.3147 10.6434C10.2315 10.4457 10.1096 10.2666 9.95621 10.1166C9.80281 9.96668 9.621 9.8489 9.42144 9.77021C9.22189 9.69151 9.00862 9.65349 8.79417 9.65837C8.37362 9.66794 7.97352 9.84172 7.67947 10.1425C7.38543 10.4433 7.22079 10.8473 7.22079 11.2679C7.22079 11.6886 7.38543 12.0926 7.67947 12.3934C7.97352 12.6942 8.37362 12.868 8.79417 12.8775ZM17.2442 12.875C17.674 12.875 18.0863 12.7043 18.3903 12.4003C18.6942 12.0963 18.865 11.6841 18.865 11.2542C18.865 10.8243 18.6942 10.4121 18.3903 10.1081C18.0863 9.80413 17.674 9.63337 17.2442 9.63337C16.8143 9.63337 16.402 9.80413 16.0981 10.1081C15.7941 10.4121 15.6233 10.8243 15.6233 11.2542C15.6233 11.6841 15.7941 12.0963 16.0981 12.4003C16.402 12.7043 16.8143 12.875 17.2442 12.875Z" fill="black"/>
</svg>
